<svg xmlns="http://www.w3.org/2000/svg" width="25.277" height="26.768" viewBox="0 0 25.277 26.768">
  <g id="Group_17033" data-name="Group 17033" transform="translate(-221.86 -757.528)">
    <path id="Path" d="M6.406,20.728H17.38c4.03,0,7.123-1.564,6.245-7.857L22.6,4.343C22.061,1.2,20.2,0,18.559,0H5.18C3.518,0,1.762,1.292,1.137,4.343L.114,12.871C-.631,18.453,2.376,20.728,6.406,20.728Z" transform="translate(222.613 762.818)" fill="none" stroke="#000" stroke-linecap="round" stroke-linejoin="round" stroke-miterlimit="10" stroke-width="1.5"/>
    <path id="Path-2" data-name="Path" d="M0,4.32A4.32,4.32,0,0,1,4.32,0h0A4.321,4.321,0,0,1,8.659,4.32h0" transform="translate(230.208 758.278)" fill="none" stroke="#000" stroke-linecap="round" stroke-linejoin="round" stroke-miterlimit="10" stroke-width="1.5"/>
    <path id="Path-3" data-name="Path" d="M.477.5H.522" transform="translate(230.147 769.377)" fill="none" stroke="#000" stroke-linecap="round" stroke-linejoin="round" stroke-miterlimit="10" stroke-width="1.5"/>
    <path id="Path-4" data-name="Path" d="M.477.5H.523" transform="translate(237.815 769.377)" fill="none" stroke="#000" stroke-linecap="round" stroke-linejoin="round" stroke-miterlimit="10" stroke-width="1.5"/>
  </g>
</svg>
