<svg width="360" height="172" viewBox="0 0 360 172" fill="none" xmlns="http://www.w3.org/2000/svg">
<path d="M87.36 0C47.424 0 12.48 36.9481 0 55.4222V172H360V104.633C342.72 87.4333 316.32 55.4222 288.48 55.4222C260.64 55.4222 250.56 98.9 203.04 73.1C155.52 47.3 137.28 0 87.36 0Z" fill="#F2F7EB"/>
<g opacity="0.5">
<g clip-path="url(#clip0_699_1364)">
<path d="M191.847 36.0002C197.235 29.3666 204 30.3862 204 30.3862C195.294 28.5363 192.001 30.9914 192.001 30.9914C187.268 28.314 180 29.1113 180 29.1113C188.95 29.7494 191.847 36.0002 191.847 36.0002Z" fill="#FD9E7C"/>
</g>
<g clip-path="url(#clip1_699_1364)">
<path d="M215.847 25.0002C221.235 18.3666 228 19.3862 228 19.3862C219.294 17.5363 216.001 19.9914 216.001 19.9914C211.268 17.314 204 18.1113 204 18.1113C212.95 18.7494 215.847 25.0002 215.847 25.0002Z" fill="#FD9E7C"/>
</g>
</g>
<defs>
<clipPath id="clip0_699_1364">
<rect width="24" height="7" fill="white" transform="translate(180 29)"/>
</clipPath>
<clipPath id="clip1_699_1364">
<rect width="24" height="7" fill="white" transform="translate(204 18)"/>
</clipPath>
</defs>
</svg>
