<svg xmlns="http://www.w3.org/2000/svg" width="15.987" height="21.356" viewBox="0 0 15.987 21.356">
  <g id="Component_442_1" data-name="Component 442 – 1" transform="translate(0.4 0.4)">
    <g id="pin_1_" data-name="pin (1)">
      <g id="Group_4235" data-name="Group 4235" transform="translate(0)">
        <g id="Group_4234" data-name="Group 4234">
          <path id="Path_2653" data-name="Path 2653" d="M10.989,0A7.6,7.6,0,0,0,3.4,7.594a8.761,8.761,0,0,0,.644,2.924,12.246,12.246,0,0,0,.878,1.642l5.206,7.889a.99.99,0,0,0,1.73,0l5.207-7.889a12.2,12.2,0,0,0,.878-1.642,8.759,8.759,0,0,0,.644-2.924A7.6,7.6,0,0,0,10.989,0Zm6.126,10.17a11.221,11.221,0,0,1-.8,1.5l-5.207,7.889c-.1.156-.135.156-.238,0L5.663,11.667a11.226,11.226,0,0,1-.8-1.5,7.953,7.953,0,0,1-.574-2.576,6.7,6.7,0,1,1,13.4,0A7.959,7.959,0,0,1,17.115,10.17Z" transform="translate(-3.395)" fill="#828080" stroke="#828080" stroke-width="0.8"/>
          <path id="Path_2654" data-name="Path 2654" d="M11.935,4.52a4.02,4.02,0,1,0,4.02,4.02A4.025,4.025,0,0,0,11.935,4.52Zm0,7.147A3.127,3.127,0,1,1,15.062,8.54,3.13,3.13,0,0,1,11.935,11.667Z" transform="translate(-4.342 -0.946)" fill="#828080" stroke="#828080" stroke-width="0.5"/>
        </g>
      </g>
    </g>
  </g>
</svg>
